<?xml version="1.0" encoding="UTF-8" standalone="no"?>
<!-- Created with Inkscape (http://www.inkscape.org/) -->

<svg
   version="1.1"
   id="svg48"
   width="280.91342"
   height="255.45412"
   viewBox="0 0 280.91342 255.45411"
   sodipodi:docname="g60.svg"
   xmlns:inkscape="http://www.inkscape.org/namespaces/inkscape"
   xmlns:sodipodi="http://sodipodi.sourceforge.net/DTD/sodipodi-0.dtd"
   xmlns="http://www.w3.org/2000/svg"
   xmlns:svg="http://www.w3.org/2000/svg">
  <sodipodi:namedview
     id="namedview13"
     pagecolor="#ffffff"
     bordercolor="#000000"
     borderopacity="0.25"
     inkscape:showpageshadow="2"
     inkscape:pageopacity="0.0"
     inkscape:pagecheckerboard="0"
     inkscape:deskcolor="#d1d1d1"
     showgrid="false" />
  <defs
     id="defs52">
    <clipPath
       clipPathUnits="userSpaceOnUse"
       id="clipPath66">
      <path
         d="M 0,0 H 350 V 350 H 0 Z"
         id="path64" />
    </clipPath>
  </defs>
  <g
     id="g56"
     transform="matrix(1.3333333,0,0,-1.3333333,241.44539,435.77941)">
    <g
       id="g60"
       transform="translate(-238.11718,28.525552)">
      <g
         id="g62"
         clip-path="url(#clipPath66)">
        <path
           id="path3191"
           style="display:inline;fill:#ffffff;fill-opacity:1;fill-rule:nonzero;stroke:none"
           d="m 189.9213,271.34578 c 2.43749,0 4.3124,-0.32559 4.7124,-0.97559 1.2,-2 -2.39981,-4.19951 -8.29981,-4.99951 -12.99998,-1.9 -53.50011,-7.90098 -64.10009,-9.50098 -8.7,-1.4 -11.49991,-1.49912 -12.39991,-0.59912 -2.4,2.4 1.60021,3.89961 15.7002,6.09961 7.69999,1.2 22.7003,3.5002 33.30029,5.20019 10.69999,1.6 20.99952,3.39981 22.99951,3.79981 2.65,0.65 5.64991,0.97559 8.08741,0.97559 z m 42.82178,-16.68897 c 0.29589,-0.0398 1.19091,-0.76201 2.69091,-2.18701 2.1,-1.9 4.69932,-5.3 5.79932,-7.5 1.1,-2.1 2.90088,-6.29883 3.90088,-9.29883 3.4,-9.89999 7.2999,-34.70117 4.8999,-31.20117 -0.5,0.8 -1.00049,3.20127 -1.00049,5.30127 0,4.99999 -4.20039,21.69864 -7.40039,29.59863 -1.4,3.4 -3.79941,7.80088 -5.39941,9.90088 -2.8125,3.625 -3.98389,5.45264 -3.49072,5.38623 z m -11.68213,-18.2373 c 0.61054,-0.005 1.09863,-0.28711 1.47363,-0.84961 0.3,-0.6 -0.50069,-1.5002 -1.70068,-2.2002 -1.2,-0.7 -3.1001,-2.29912 -4.1001,-3.59912 -1,-1.2 -2.19971,-2.29981 -2.69971,-2.29981 -1.6,0 0.30039,4.5002 2.90039,6.7002 1.75,1.5 3.10889,2.25732 4.12647,2.24854 z m 7.98486,-9.21094 c 0.8375,0.1375 1.03867,-0.33887 1.38867,-1.33887 0.4,-1.1 -0.50068,-1.9 -3.20068,-3 -2,-0.8 -4.49942,-1.89941 -5.39942,-2.39941 -2.39999,-1.3 -2.80078,-1.30049 -2.80078,0.49951 0,0.8 2.1003,2.60088 4.8003,3.90088 2.89999,1.45 4.37441,2.20039 5.21191,2.33789 z m -31.21143,-11.7378 c 0.7,0 1.39883,-1.10049 1.79883,-2.50048 0.3,-1.4 0.40108,-3.70059 0.10108,-5.10059 -0.2,-1.3 -0.10079,-5.39893 0.19921,-8.89893 0.7,-6.89999 -0.1997,-10.90048 -1.1997,-5.50048 -1.4,6.99999 -1.99942,22.00048 -0.89942,22.00048 z m 33.49952,-3.10107 c 3.09999,0.1 3.70019,-0.1999 3.70019,-1.8999 0,-1.9 -0.49971,-2.09883 -5.69971,-1.79883 -9.29999,0.5 -7.90047,3.29873 1.99952,3.69873 z m -27.89502,-0.0234 c 0.55781,-0.16406 1.49472,-6.05069 2.09472,-14.07568 0.5,-7.29999 1.3001,-11.90088 2.6001,-14.40088 1,-2 1.60078,-4.09961 1.30078,-4.59961 -0.3,-0.5 0.0994,-1.7001 0.89942,-2.6001 0.79999,-0.9 1.80019,-2.79971 2.20019,-4.19971 1.4,-4.39999 -2.00039,-0.60009 -4.40039,4.89991 -4.1,9.59999 -5.89912,21.39962 -5.09912,33.09961 0.075,1.35 0.21836,1.93115 0.4043,1.87646 z m 20.51953,-13.71387 c 0.8,0.0125 2.32568,-0.3124 5.07568,-0.9624 4.8,-1.2 6,-1.8999 6,-3.3999 0,-1.7 -0.50069,-1.89932 -3.20068,-1.29932 -4.9,1 -8.2001,2.79961 -8.6001,4.59961 -0.15,0.7 -0.0749,1.04951 0.7251,1.06201 z m -2.02442,-11.25 c 0.6,-0.0375 1.49971,-0.51211 2.69971,-1.4121 1,-0.8 2.59951,-1.5 3.49951,-1.5 2.2,0 5.40049,-3.60001 4.00049,-4.5 -2.3,-1.4 -11.09912,3.50068 -11.09912,6.20068 0,0.85 0.29941,1.24892 0.89941,1.21142 z m -20.52685,-1.40771 c 0.23928,0.0189 0.71455,-0.92315 1.72705,-3.00439 1,-2.2 1.8999,-4.6002 1.8999,-5.2002 0,-0.7 -0.50049,-1.29932 -1.00049,-1.29932 -1.4,0 -3.00039,4.4003 -2.90039,7.8003 0.0437,1.09375 0.0878,1.68891 0.27393,1.70361 z m 14.31445,-4.59229 c 0.3125,0.1375 1.06192,-0.31211 2.21191,-1.4121 0.9,-0.8 3.09991,-2.7001 4.89991,-4.1001 2.19999,-1.8 2.9998,-3.0002 2.2998,-3.7002 -1.2,-1.2 -7.3,3.6001 -9,7.1001 -0.6,1.25 -0.72412,1.9748 -0.41162,2.1123 z m -11.37744,-5.8872 c 0.36035,0.0996 1.47656,-1.58741 2.78906,-4.52491 1.1,-2.39999 2.40039,-4.69951 2.90039,-4.99951 0.6,-0.3 1.00049,-1.10068 1.00049,-1.70068 0,-3 -4.7999,3.7 -6.3999,9 -0.45,1.4625 -0.50625,2.16533 -0.29004,2.2251 z m -28.80908,-2.16358 c 4.35468,-0.0609 4.89844,-0.58594 6.39843,-2.46093 1.2,-1.5 2.10059,-4.00049 2.10059,-5.50049 v -2.90039 l -44.2002,-0.0996 c -24.39997,0 -45.100099,-0.19991 -46.100098,-0.39991 -3.299996,-0.59999 -8.399216,7.1003 -6.199218,9.3003 0.299999,0.4 16.698846,0.99931 36.298826,1.29931 19.59998,0.3 40.30089,0.6002 45.90088,0.7002 2.475,0.05 4.34922,0.0818 5.80079,0.0615 z m 41.94873,-6.27392 c 0.275,-0.0375 0.65029,-0.23741 1.05029,-0.58741 0.8,-0.69999 1.5,-1.70019 1.5,-2.20019 0,-0.6 -0.7,-0.49932 -1.5,0.20068 -0.8,0.7 -1.5,1.7002 -1.5,2.2002 0,0.3 0.17471,0.42422 0.44971,0.38672 z m 5.89553,131.24942 c -1.41312,-0.0258 -2.94609,-0.31289 -4.74609,-0.83789 -1.5,-0.5 -7.09955,-1.39951 -12.49951,-1.99951 -20.79992,-2.3 -27.69993,-3.29932 -28.8999,-4.29932 -0.69999,-0.59997 -5.00102,-1.2 -9.50098,-1.5 -4.5,-0.2 -8.69883,-0.80078 -9.29883,-1.30078 -1.2,-1 -16.70004,-4.50039 -25.5,-5.90039 -5.79997,-0.8 -9.90088,-2.39942 -9.90088,-3.89941 0,-0.4 -1.2001,-1.29951 -2.6001,-1.99951 -2.59997,-1.1 -6.3999,-4.20081 -10.8999,-8.80078 -1.2,-1.3 -2.79951,-2.29981 -3.49951,-2.29981 -1.1,0 -3.19964,-1.69972 -9.099613,-7.19971 -1.099996,-1 -2.400004,-1.80029 -3,-1.80029 -0.699996,0 -2.100297,-0.89952 -3.300293,-1.99951 -6.599972,-6.1 -9.099719,-8.20059 -11.699707,-9.60059 -1.599996,-0.8 -2.900391,-1.80019 -2.900391,-2.20019 0,-0.4 -1.699813,-1.79922 -3.799805,-3.19922 -3.299987,-2.19999 -15.200684,-13.40089 -15.200684,-14.40088 0,-1.7 2.200395,-11.5001 2.900391,-13.1001 0.599996,-1.1 1.700492,-3.99952 2.500488,-6.49951 3.499988,-10.39996 5.000118,-13.79926 10.100098,-24.19922 2.999988,-5.99997 5.499024,-11.3004 5.499024,-11.90039 0,-0.6 2.700403,-6.49975 5.900391,-13.19971 22.999921,-47.29981 20.399261,-44.00039 34.699221,-44.90039 5.99996,-0.4 17.20092,-1.20069 24.90088,-1.70069 35.69984,-2.49999 52.80033,-3.1997 61.80029,-2.6997 9.09999,0.59999 9.99925,0.79991 12.19922,3.3999 1.4,1.49999 2.50049,3.10059 2.50049,3.60058 0,0.7 0.99965,2.00003 6.09961,7.5 0.9,1 3.30049,4.39924 5.50049,7.69923 2.1,3.19997 4.59941,6.6 5.39941,7.5 0.8,0.9 2.40098,2.90079 3.50098,4.30078 1.1,1.5 2.79982,3.50039 3.79981,4.40039 0.99997,0.89999 2.59912,3.49932 3.59912,5.79932 0.99999,2.19997 3.40019,5.6 5.20019,7.5 1.9,1.89997 4.50078,5.50058 5.80078,8.10058 1.3,2.6 2.99873,4.89873 3.69873,5.19873 0.8,0.3 1.40039,1.30021 1.40039,2.2002 0,0.9 0.90059,3.2998 2.10059,5.2998 2,3.6 1.99912,4.0007 0.59912,10.70069 -0.9,3.79997 -2.49873,9.3999 -3.69873,12.3999 -2.7,6.69996 -6,18.80054 -9,32.50049 -2.6,11.89996 -11.30098,44.09961 -12.50098,46.59961 -0.8,1.49999 -1.5,3.30049 -1.5,4.00049 0,1.79997 -5.89942,8.19962 -9.89941,10.59961 -1.9,1.2 -3.57598,1.87422 -5.37598,2.07422 -0.45,0.05 -0.90737,0.0716 -1.37842,0.063 z m 1.5542,-4.93798 c 2.3,0.1 2.19949,-0.0986 -1.00048,-2.59864 -1.89999,-1.4 -4.69923,-4.401 -6.19922,-6.50097 -1.5,-2.1 -3.3001,-3.79981 -4.1001,-3.79981 -0.8,0 -1.80059,-0.89952 -2.10059,-1.99951 -0.3,-1.1 -1.1999,-2.00098 -1.8999,-2.00098 -0.7,0 -3.4,-2.39983 -6,-5.2998 -2.6,-2.89999 -6.1003,-6.19971 -7.80029,-7.19971 -3.3,-1.9 -5.69975,-3.90032 -11.69971,-9.30029 -2,-1.79999 -5.8001,-4.69954 -8.6001,-6.49951 -2.7,-1.7 -5.8002,-4.09981 -6.70019,-5.29981 -2.3,-2.9 -15.79989,-5.50088 -35.29981,-6.90088 -4.39997,-0.3 -8.69912,-0.8001 -9.59912,-1.1001 -0.9,-0.2 -3.40049,-0.59941 -5.50049,-0.89941 -2.2,-0.2 -6.80039,-0.9 -10.40039,-1.5 -10.599962,-1.9 -10.900342,-1.90049 -24.300295,-2.50049 -11.799952,-0.6 -12.899512,-0.4999 -12.499512,1.1001 0.1,0.89999 1.100199,2.20078 2.200195,2.80078 0.999996,0.6 3.500497,2.59933 5.500489,4.29932 1.999992,1.79997 3.998926,3.30029 4.398926,3.30029 0.399996,0 1.800004,0.99983 3,2.2998 1.199992,1.3 6.200608,5.19974 11.100585,8.69971 4.899992,3.5 10.199322,7.60069 11.799322,9.20069 1.59999,1.49997 3.30127,2.79931 3.80127,2.79931 0.5,0 3.09974,2.19993 5.6997,4.8999 3.6,3.7 6.49914,5.50049 11.09913,7.00049 3.39997,1.2 7.10091,2.10059 8.40087,2.10059 1.2,0 8.80034,1.29895 16.8003,2.89892 22.79991,4.7 41.69867,7.90108 52.09863,9.10108 5.4,0.6 11.00098,1.49951 12.50098,1.99951 1.6,0.4 3.99983,0.89942 5.2998,0.89942 z m 5.96924,-4.71827 c 0.39961,-0.0809 0.83117,-0.41894 1.43115,-0.98144 0.9,-0.79999 1.69922,-2.09971 1.69922,-2.69971 0,-0.7 0.7,-2.6001 1.5,-4.1001 0.8,-1.6 1.5,-3.69961 1.5,-4.59961 0,-1 0.40088,-1.80029 0.90088,-1.80029 0.5,0 2.09914,-5.1002 3.59912,-11.2002 7.8,-33.09989 12.90049,-52.69942 14.50049,-56.39941 1,-2.3 2.10049,-5.60078 2.50049,-7.30078 0.3,-1.69999 1.09961,-3.29912 1.59961,-3.59912 0.5,-0.4 0.89941,-2.20011 0.89941,-4.1001 0,-2 0.50049,-4.40049 1.00049,-5.50049 0.9,-1.5 0.29961,-3.19972 -2.90039,-8.69971 -2.2,-3.69998 -4.9,-7.29951 -6,-7.99951 -1.2,-0.7 -2.09912,-2.10068 -2.09912,-3.20068 0,-1.09999 -0.5001,-1.99951 -1.1001,-1.99951 -0.5,0 -0.80097,-0.40088 -0.50097,-0.90088 0.3,-0.5 -0.69981,-2.29903 -2.29981,-3.99903 -1.6,-1.69998 -4.3,-5.60011 -6,-8.60009 -1.7,-3.09999 -3.8999,-6.4004 -4.8999,-7.4004 -3,-3.39997 -4.6001,-5.49962 -7.1001,-9.0996 -2.4,-3.49999 -4.19932,-5.70079 -7.29932,-8.80079 -0.99998,-0.9 -1.80029,-2.1001 -1.80029,-2.6001 0,-0.49999 -0.69961,-1.69971 -1.59961,-2.6997 -1.4,-1.5 -1.8,-1.5999 -3,-0.39991 -0.8,0.7 -1.40039,2.00079 -1.40039,2.80079 0,0.79999 -0.7999,2.19962 -1.8999,3.09961 -1,1 -2.39961,4.3999 -3.09961,7.8999 -0.6,3.39999 -1.6002,6.70039 -2.2002,7.40039 -0.5,0.7 -0.80097,1.79902 -0.50097,2.49902 0.6,1.7 -1.1002,5.00077 -2.2002,4.30079 -0.5,-0.3 -1.1,0.19902 -1.5,0.99902 -0.3,0.8 -0.0986,1.70098 0.40137,2.00098 1.1,0.7 0.19902,3.29902 -2.00098,5.49902 -1,1 -2.09941,3.50011 -2.39941,5.6001 -0.4,2.09998 -1.49981,5.20088 -2.29981,6.90088 -1.39998,2.69998 -4.5,12.50001 -6,19.5 -0.3,1.4 -1.00107,3.0998 -1.60107,3.7998 -1.6,2 -4.69893,10.99954 -5.89893,16.99951 -0.5,2.8 -1.30029,5.2002 -1.80029,5.2002 -1.2,0 -3.20078,5.60021 -2.80078,8.20019 0.2,1.2 -0.3001,2.79991 -1.1001,3.39991 -1.09999,0.9 -1.09961,2.00021 -0.0996,6.70019 0.8,3.5 1.79971,5.69971 2.69971,5.69971 0.7,0 1.30078,0.2998 1.30078,0.7998 0,0.4 2.29953,2.5007 4.99951,4.70069 2.8,2.2 5.00098,4.3999 5.00098,4.8999 0,1.4 5.19912,6.59912 6.59912,6.59912 0.7,0 2.20029,1.49992 3.30029,3.3999 1.2,1.8 4.19942,5.30108 6.89942,7.60108 7.99997,7.29997 18.60117,17.69982 20.70117,20.2998 1.125,1.4375 1.70264,2.01563 2.36865,1.88086 z m -69.8042,-57.33838 c 2.48008,0.0178 3.40996,-0.60459 5.33496,-3.14209 1.4,-1.9 2.6001,-4.30088 2.6001,-5.40088 0,-1 1.10049,-3.39981 2.50049,-5.2998 1.4,-1.8 2.79961,-4.99942 3.09961,-6.89942 0.4,-1.99999 1,-4.10107 1.5,-4.60107 1.2,-1.6 12.89951,-35.79924 15.49951,-45.19922 0.7,-2.9 3.20088,-8.9008 5.40088,-13.30078 2.2,-4.4 3.79951,-7.99951 3.49951,-7.99951 -0.3,0 0.4,-1.7002 1.5,-3.7002 1.1,-2.1 1.99951,-4.2999 1.99951,-4.8999 0,-0.6 0.69961,-2.49932 1.59961,-4.29932 2,-4.09999 3.00107,-11.10059 1.60108,-11.10059 -0.6,0 -1.40069,-0.90058 -1.70069,-2.10058 -0.8,-2.3 -0.10004,-2.2999 -22.5,-0.3999 -4.09998,0.4 -9.79912,0.60097 -12.59912,0.50097 -2.8,0 -6.30069,0.39942 -7.70068,0.89942 -1.9,0.69999 -2.69971,0.69999 -2.69971,0 0,-0.8 -1.3002,-0.8999 -3.7002,-0.39991 -2.09998,0.4 -7.30011,0.70059 -11.60009,0.60059 -4.3,-0.1 -10.5003,0.29942 -13.8003,0.89941 -3.39998,0.6 -9.6003,1.30039 -13.80029,1.40039 -8.99998,0.3 -9.59893,0.59933 -10.39893,4.29932 -0.3,1.6 -2.20011,5.29981 -4.10009,8.29981 -2,2.99999 -3.600592,5.80029 -3.600592,6.30029 0,0.5 -0.69961,2.5 -1.59961,4.5 -0.899997,2.1 -2.299609,5.29971 -3.099609,7.19971 -0.899998,1.89999 -3.000295,6.4005 -4.800293,10.00049 -4.79999,9.39999 -20.400102,43.79952 -22.100098,48.49951 -0.699998,2.2 -1.400391,4.9 -1.400391,6 0,1.1 -0.7,2.90088 -1.5,3.90088 -2.999994,3.89999 -1.999206,5.39961 4.300782,6.09961 11.099978,1.19999 13.19883,1.30029 13.798828,0.30029 0.4,-0.70001 0.900782,-0.60039 1.300782,0.0996 0.399998,0.6 6.79953,1.5006 15.499509,2.10059 8.099982,0.5 15.100592,1.2 15.600592,1.5 0.5,0.3 1.09932,-0.1002 1.29932,-0.7002 0.39999,-0.9 0.80039,-1.00068 1.40039,-0.20068 0.99999,1.39999 7.10079,2.60039 14.80078,2.90039 3.29998,0.1 6.89951,0.59971 7.99951,1.19971 1.1,0.5 4.90049,1.0997 8.50049,1.1997 3.49998,0.1 6.49873,0.30137 6.69873,0.40137 0.1,0.2 2.00117,0.39951 4.20117,0.49951 0.425,0.025 0.81025,0.0395 1.16455,0.0425 z" />
      </g>
    </g>
  </g>
</svg>
